<svg width="24" height="24" viewBox="0 0 24 24" fill="none" xmlns="http://www.w3.org/2000/svg">
<path fill-rule="evenodd" clip-rule="evenodd" d="M19.0711 4.92905C17.1823 3.0403 14.6711 2.00011 12 2.00011C9.32892 2.00011 6.81774 3.0403 4.92895 4.92905C3.04016 6.8178 2 9.32901 2 12.0001C2 14.6712 3.04024 17.1824 4.92895 19.0712C6.81771 20.96 9.32896 22.0001 12 22.0001C14.6711 22.0001 17.1823 20.9599 19.0711 19.0712C20.9598 17.1824 22 14.6712 22 12.0001C22 9.32893 20.9598 6.8178 19.0711 4.92905ZM18.2428 18.2428C16.5753 19.9103 14.3582 20.8286 12.0001 20.8286C9.64189 20.8286 7.42485 19.9103 5.75735 18.2428C4.08985 16.5753 3.17149 14.3583 3.17149 12.0001C3.17149 9.6419 4.08981 7.42491 5.75731 5.75741C7.42482 4.08991 9.64185 3.17159 12 3.17159C14.3582 3.17159 16.5753 4.08991 18.2428 5.75741C19.9103 7.42491 20.8286 9.64194 20.8286 12.0001C20.8286 14.3583 19.9102 16.5753 18.2428 18.2428ZM13.8322 12.4857C13.6881 12.2127 13.5095 12.0041 13.2965 11.86C13.0833 11.716 12.8522 11.5824 12.6031 11.4593C12.3539 11.3364 12.1228 11.2342 11.9098 11.1532C11.6967 11.0721 11.5181 10.9672 11.3741 10.838C11.23 10.709 11.158 10.5575 11.158 10.3833C11.158 10.1672 11.2464 9.9977 11.4236 9.87457C11.6006 9.7516 11.8513 9.69 12.1755 9.69C12.4695 9.69 12.7367 9.74715 12.9768 9.86109C13.2168 9.9752 13.3641 10.0322 13.4181 10.0322C13.5621 10.0322 13.6761 9.96086 13.7602 9.81809C13.8442 9.67527 13.8863 9.53695 13.8863 9.40332C13.8863 9.26149 13.8247 9.13824 13.7017 9.03344C13.5786 8.92879 13.4195 8.85168 13.2245 8.80231C13.0293 8.75305 12.8447 8.71762 12.6707 8.69594C12.6294 8.69082 12.5886 8.68641 12.5483 8.6825V7.72586C12.5483 7.40238 12.2861 7.14012 11.9626 7.14012C11.6391 7.14012 11.3768 7.40238 11.3768 7.72586V8.76375C11.1364 8.82789 10.9104 8.92695 10.6988 9.0611C10.4827 9.19813 10.31 9.39004 10.181 9.6368C10.0518 9.88356 9.98742 10.1684 9.98742 10.4914C9.98742 10.7795 10.0399 11.0361 10.145 11.2612C10.25 11.4863 10.3881 11.6664 10.5592 11.8014C10.7302 11.9365 10.9194 12.0581 11.1264 12.1661C11.3335 12.2742 11.539 12.3718 11.7432 12.4588C11.9472 12.5458 12.1349 12.6359 12.306 12.7289C12.4771 12.822 12.6151 12.9391 12.7202 13.08C12.8251 13.2212 12.8777 13.3817 12.8777 13.5618C12.8777 13.82 12.7816 14.0151 12.5896 14.147C12.3974 14.2791 12.1574 14.3451 11.8692 14.3451C11.659 14.3451 11.467 14.3077 11.293 14.2329C11.1188 14.158 10.9853 14.0754 10.8922 13.985C10.7991 13.8946 10.7032 13.8119 10.6041 13.737C10.505 13.6622 10.4164 13.6248 10.3384 13.6248C10.2063 13.6248 10.0877 13.6954 9.98277 13.8364C9.8777 13.9775 9.8252 14.1171 9.8252 14.255C9.8252 14.5312 10.0292 14.7863 10.4375 15.0204C10.7135 15.1787 11.0266 15.2832 11.3767 15.3345V16.237C11.3767 16.5604 11.639 16.8227 11.9625 16.8227C12.2859 16.8227 12.5482 16.5604 12.5482 16.237V15.3066C12.9027 15.2297 13.2063 15.0844 13.4585 14.8698C13.8516 14.5354 14.0483 14.0603 14.0483 13.4446C14.0483 13.0786 13.9763 12.7589 13.8322 12.4857ZM4.38318 12.0001C4.38318 7.80025 7.80002 4.38346 11.9999 4.38346C16.1997 4.38346 19.6166 7.80029 19.6166 12.0001C19.6166 16.2 16.1997 19.6168 11.9999 19.6168C7.80002 19.6168 4.38318 16.2 4.38318 12.0001ZM5.55467 12.0001C5.55467 15.554 8.44596 18.4453 11.9999 18.4453C15.5538 18.4453 18.4451 15.554 18.4451 12.0001C18.4451 8.44623 15.5537 5.55494 11.9999 5.55494C8.446 5.55494 5.55467 8.44623 5.55467 12.0001Z" fill="#777777"/>
<path d="M19.0711 4.92905L19.2479 4.75228L19.2479 4.75227L19.0711 4.92905ZM4.92895 4.92905L5.10573 5.10583L4.92895 4.92905ZM4.92895 19.0712L4.75217 19.2479L4.75217 19.2479L4.92895 19.0712ZM19.0711 19.0712L18.8943 18.8944L18.8943 18.8944L19.0711 19.0712ZM18.2428 18.2428L18.4195 18.4196L18.4195 18.4196L18.2428 18.2428ZM5.75731 5.75741L5.93409 5.93419H5.93409L5.75731 5.75741ZM18.2428 5.75741L18.4195 5.58063L18.2428 5.75741ZM13.2965 11.86L13.4366 11.653L13.4365 11.6529L13.2965 11.86ZM13.8322 12.4857L14.0533 12.3691L14.0533 12.369L13.8322 12.4857ZM12.6031 11.4593L12.7139 11.2352L12.7138 11.2351L12.6031 11.4593ZM11.9098 11.1532L11.9987 10.9195L11.9987 10.9195L11.9098 11.1532ZM11.3741 10.838L11.541 10.6519L11.5409 10.6518L11.3741 10.838ZM11.4236 9.87457L11.281 9.66926L11.2809 9.66929L11.4236 9.87457ZM12.9768 9.86109L13.0842 9.63531L13.084 9.63524L12.9768 9.86109ZM13.7602 9.81809L13.9756 9.94502L13.9758 9.94477L13.7602 9.81809ZM13.7017 9.03344L13.8639 8.84314L13.8637 8.84297L13.7017 9.03344ZM13.2245 8.80231L13.2859 8.55996L13.2857 8.55991L13.2245 8.80231ZM12.6707 8.69594L12.7016 8.44786L12.7014 8.44783L12.6707 8.69594ZM12.5483 8.6825H12.2983V8.90945L12.5242 8.93134L12.5483 8.6825ZM11.3768 8.76375L11.4413 9.00531L11.6268 8.95581V8.76375H11.3768ZM10.6988 9.0611L10.5649 8.84995L10.5649 8.84997L10.6988 9.0611ZM10.181 9.6368L10.4025 9.75275L10.4026 9.75264L10.181 9.6368ZM10.145 11.2612L10.3716 11.1556L10.3715 11.1555L10.145 11.2612ZM11.1264 12.1661L11.0107 12.3878L11.0108 12.3878L11.1264 12.1661ZM11.7432 12.4588L11.8414 12.2288L11.8411 12.2287L11.7432 12.4588ZM12.306 12.7289L12.4255 12.5093L12.4254 12.5092L12.306 12.7289ZM12.7202 13.08L12.9208 12.9308L12.9206 12.9306L12.7202 13.08ZM12.5896 14.147L12.448 13.941L12.448 13.941L12.5896 14.147ZM11.293 14.2329L11.3918 14.0032L11.3917 14.0031L11.293 14.2329ZM10.8922 13.985L11.0665 13.8057L11.0663 13.8055L10.8922 13.985ZM10.6041 13.737L10.4533 13.9365L10.4534 13.9365L10.6041 13.737ZM9.98277 13.8364L10.1833 13.9857L10.1833 13.9856L9.98277 13.8364ZM10.4375 15.0204L10.5619 14.8035L10.5619 14.8035L10.4375 15.0204ZM11.3767 15.3345H11.6267V15.1184L11.4129 15.0871L11.3767 15.3345ZM12.5482 15.3066L12.4952 15.0623L12.2982 15.105V15.3066H12.5482ZM13.4585 14.8698L13.2965 14.6794L13.2965 14.6794L13.4585 14.8698ZM12 2.25011C14.6048 2.25011 17.0524 3.26396 18.8944 5.10583L19.2479 4.75227C17.3122 2.81664 14.7374 1.75011 12 1.75011V2.25011ZM5.10573 5.10583C6.94764 3.26396 9.39523 2.25011 12 2.25011V1.75011C9.26261 1.75011 6.68785 2.81664 4.75218 4.75227L5.10573 5.10583ZM2.25 12.0001C2.25 9.39532 3.26382 6.9477 5.10573 5.10583L4.75218 4.75227C2.8165 6.68791 1.75 9.26271 1.75 12.0001H2.25ZM5.10573 18.8944C3.26389 17.0525 2.25 14.6049 2.25 12.0001H1.75C1.75 14.7375 2.81658 17.3123 4.75217 19.2479L5.10573 18.8944ZM12 21.7501C9.39526 21.7501 6.9476 20.7363 5.10573 18.8944L4.75217 19.2479C6.68781 21.1836 9.26266 22.2501 12 22.2501V21.7501ZM18.8943 18.8944C17.0524 20.7362 14.6048 21.7501 12 21.7501V22.2501C14.7374 22.2501 17.3122 21.1836 19.2478 19.2479L18.8943 18.8944ZM21.75 12.0001C21.75 14.6049 20.7361 17.0525 18.8943 18.8944L19.2478 19.2479C21.1835 17.3123 22.25 14.7375 22.25 12.0001H21.75ZM18.8943 5.10583C20.7362 6.94769 21.75 9.39524 21.75 12.0001H22.25C22.25 9.26263 21.1835 6.68791 19.2479 4.75228L18.8943 5.10583ZM12.0001 21.0786C14.4245 21.0786 16.7052 20.134 18.4195 18.4196L18.066 18.066C16.4454 19.6866 14.2919 20.5786 12.0001 20.5786V21.0786ZM5.58057 18.4196C7.29496 20.134 9.57559 21.0786 12.0001 21.0786V20.5786C9.70819 20.5786 7.55475 19.6866 5.93413 18.066L5.58057 18.4196ZM2.92149 12.0001C2.92149 14.4246 3.86619 16.7052 5.58057 18.4196L5.93413 18.066C4.31351 16.4454 3.42149 14.292 3.42149 12.0001H2.92149ZM5.58054 5.58063C3.86615 7.29502 2.92149 9.5756 2.92149 12.0001H3.42149C3.42149 9.70821 4.31347 7.5548 5.93409 5.93419L5.58054 5.58063ZM12 2.92159C9.57555 2.92159 7.29492 3.86625 5.58054 5.58063L5.93409 5.93419C7.55471 4.31357 9.70816 3.42159 12 3.42159V2.92159ZM18.4195 5.58063C16.7052 3.86625 14.4245 2.92159 12 2.92159V3.42159C14.2919 3.42159 16.4454 4.31357 18.066 5.93419L18.4195 5.58063ZM21.0786 12.0001C21.0786 9.57564 20.1339 7.29502 18.4195 5.58063L18.066 5.93419C19.6866 7.5548 20.5786 9.70824 20.5786 12.0001H21.0786ZM18.4195 18.4196C20.1339 16.7052 21.0786 14.4246 21.0786 12.0001H20.5786C20.5786 14.292 19.6866 16.4454 18.066 18.066L18.4195 18.4196ZM13.1564 12.0671C13.3292 12.184 13.4824 12.3585 13.6111 12.6024L14.0533 12.369C13.8939 12.0669 13.6897 11.8242 13.4366 11.653L13.1564 12.0671ZM12.4924 11.6835C12.7321 11.8019 12.9534 11.9299 13.1565 12.0672L13.4365 11.6529C13.2132 11.502 12.9723 11.3629 12.7139 11.2352L12.4924 11.6835ZM11.8209 11.3869C12.0251 11.4645 12.2489 11.5633 12.4925 11.6835L12.7138 11.2351C12.459 11.1094 12.2206 11.0039 11.9987 10.9195L11.8209 11.3869ZM11.2072 11.0242C11.3779 11.1772 11.5842 11.2969 11.8209 11.3869L11.9987 10.9195C11.8091 10.8474 11.6584 10.7572 11.541 10.6519L11.2072 11.0242ZM10.908 10.3833C10.908 10.6369 11.0168 10.8537 11.2073 11.0243L11.5409 10.6518C11.4432 10.5644 11.408 10.4781 11.408 10.3833H10.908ZM11.2809 9.66929C11.0364 9.83926 10.908 10.0856 10.908 10.3833H11.408C11.408 10.2489 11.4565 10.1561 11.5663 10.0799L11.2809 9.66929ZM12.1755 9.44C11.8244 9.44 11.516 9.50594 11.281 9.66926L11.5662 10.0799C11.6851 9.99727 11.8781 9.94 12.1755 9.94V9.44ZM13.084 9.63524C12.8071 9.50381 12.5027 9.44 12.1755 9.44V9.94C12.4363 9.94 12.6664 9.99049 12.8697 10.087L13.084 9.63524ZM13.4181 9.78219C13.4401 9.78219 13.4478 9.78652 13.4283 9.78097C13.4134 9.77675 13.3903 9.76902 13.3576 9.75633C13.2923 9.73103 13.2018 9.69122 13.0842 9.63531L12.8695 10.0869C12.9919 10.1451 13.095 10.1908 13.1769 10.2225C13.2177 10.2383 13.2565 10.252 13.2919 10.262C13.3226 10.2707 13.369 10.2822 13.4181 10.2822V9.78219ZM13.5449 9.69116C13.4976 9.77135 13.4588 9.78219 13.4181 9.78219V10.2822C13.6654 10.2822 13.8546 10.1504 13.9756 9.94502L13.5449 9.69116ZM13.6363 9.40332C13.6363 9.48274 13.6116 9.5777 13.5447 9.6914L13.9758 9.94477C14.0768 9.77285 14.1363 9.59117 14.1363 9.40332H13.6363ZM13.5396 9.22373C13.6157 9.28854 13.6363 9.34555 13.6363 9.40332H14.1363C14.1363 9.17742 14.0338 8.98794 13.8639 8.84314L13.5396 9.22373ZM13.1631 9.04465C13.3299 9.08689 13.4521 9.14931 13.5398 9.2239L13.8637 8.84297C13.7052 8.70827 13.509 8.61647 13.2859 8.55996L13.1631 9.04465ZM12.6398 8.94402C12.8023 8.96427 12.9767 8.99761 13.1633 9.0447L13.2857 8.55991C13.0819 8.50848 12.8872 8.47097 12.7016 8.44786L12.6398 8.94402ZM12.5242 8.93134C12.5626 8.93506 12.6011 8.93923 12.64 8.94404L12.7014 8.44783C12.6576 8.44241 12.6146 8.43776 12.5724 8.43367L12.5242 8.93134ZM12.2983 7.72586V8.6825H12.7983V7.72586H12.2983ZM11.9626 7.39012C12.148 7.39012 12.2983 7.54046 12.2983 7.72586H12.7983C12.7983 7.26431 12.4241 6.89012 11.9626 6.89012V7.39012ZM11.6268 7.72586C11.6268 7.54046 11.7772 7.39012 11.9626 7.39012V6.89012C11.501 6.89012 11.1268 7.26431 11.1268 7.72586H11.6268ZM11.6268 8.76375V7.72586H11.1268V8.76375H11.6268ZM10.8326 9.27224C11.0229 9.15163 11.2255 9.06286 11.4413 9.00531L11.3124 8.5222C11.0473 8.59292 10.7979 8.70228 10.5649 8.84995L10.8326 9.27224ZM10.4026 9.75264C10.5131 9.54129 10.6569 9.38371 10.8327 9.27222L10.5649 8.84997C10.3085 9.01254 10.107 9.23879 9.95947 9.52096L10.4026 9.75264ZM10.2374 10.4914C10.2374 10.2023 10.2949 9.95832 10.4025 9.75275L9.95953 9.52085C9.80879 9.80879 9.73742 10.1346 9.73742 10.4914H10.2374ZM10.3715 11.1555C10.2842 10.9684 10.2374 10.7488 10.2374 10.4914H9.73742C9.73742 10.8102 9.79564 11.1038 9.91847 11.367L10.3715 11.1555ZM10.7141 11.6052C10.5776 11.4975 10.4623 11.3502 10.3716 11.1556L9.91842 11.3669C10.0376 11.6225 10.1986 11.8353 10.4043 11.9977L10.7141 11.6052ZM11.2421 11.9445C11.0479 11.8432 10.872 11.7299 10.7141 11.6052L10.4043 11.9977C10.5884 12.143 10.7908 12.273 11.0107 12.3878L11.2421 11.9445ZM11.8411 12.2287C11.6434 12.1446 11.4438 12.0497 11.242 11.9445L11.0108 12.3878C11.2232 12.4986 11.4347 12.5991 11.6453 12.6888L11.8411 12.2287ZM12.4254 12.5092C12.2465 12.412 12.0516 12.3185 11.8414 12.2288L11.6451 12.6887C11.8429 12.7731 12.0234 12.8598 12.1866 12.9485L12.4254 12.5092ZM12.9206 12.9306C12.7917 12.7577 12.6249 12.6178 12.4255 12.5093L12.1865 12.9484C12.3292 13.0262 12.4384 13.1204 12.5197 13.2294L12.9206 12.9306ZM13.1277 13.5618C13.1277 13.3291 13.0585 13.1161 12.9208 12.9308L12.5196 13.2292C12.5917 13.3263 12.6277 13.4342 12.6277 13.5618H13.1277ZM12.7311 14.3531C12.9992 14.1689 13.1277 13.8919 13.1277 13.5618H12.6277C12.6277 13.748 12.5641 13.8612 12.448 13.941L12.7311 14.3531ZM11.8692 14.5951C12.1959 14.5951 12.4884 14.5199 12.7312 14.3531L12.448 13.941C12.3064 14.0383 12.1189 14.0951 11.8692 14.0951V14.5951ZM11.1942 14.4625C11.4026 14.5522 11.6288 14.5951 11.8692 14.5951V14.0951C11.6893 14.0951 11.5313 14.0632 11.3918 14.0032L11.1942 14.4625ZM10.718 14.1642C10.8405 14.2833 11.0037 14.3807 11.1943 14.4626L11.3917 14.0031C11.2338 13.9353 11.13 13.8675 11.0665 13.8057L10.718 14.1642ZM10.4534 13.9365C10.5437 14.0047 10.6318 14.0807 10.7182 14.1644L11.0663 13.8055C10.9664 13.7086 10.8627 13.619 10.7547 13.5375L10.4534 13.9365ZM10.3384 13.8748C10.3372 13.8748 10.3456 13.8745 10.3661 13.8831C10.3868 13.8919 10.4158 13.9081 10.4533 13.9365L10.7548 13.5376C10.6361 13.4479 10.4945 13.3748 10.3384 13.3748V13.8748ZM10.1833 13.9856C10.2581 13.8852 10.31 13.8748 10.3384 13.8748V13.3748C10.1026 13.3748 9.91732 13.5056 9.78222 13.6871L10.1833 13.9856ZM10.0752 14.255C10.0752 14.184 10.1015 14.0956 10.1833 13.9857L9.78225 13.6871C9.65392 13.8594 9.5752 14.0501 9.5752 14.255H10.0752ZM10.5619 14.8035C10.175 14.5817 10.0752 14.3917 10.0752 14.255H9.5752C9.5752 14.6708 9.88344 14.9908 10.3131 15.2373L10.5619 14.8035ZM11.4129 15.0871C11.0903 15.0399 10.8077 14.9445 10.5619 14.8035L10.3131 15.2373C10.6193 15.4129 10.9629 15.5266 11.3405 15.5819L11.4129 15.0871ZM11.6267 16.237V15.3345H11.1267V16.237H11.6267ZM11.9625 16.5727C11.7771 16.5727 11.6267 16.4224 11.6267 16.237H11.1267C11.1267 16.6985 11.5009 17.0727 11.9625 17.0727V16.5727ZM12.2982 16.237C12.2982 16.4224 12.1479 16.5727 11.9625 16.5727V17.0727C12.424 17.0727 12.7982 16.6985 12.7982 16.237H12.2982ZM12.2982 15.3066V16.237H12.7982V15.3066H12.2982ZM13.2965 14.6794C13.0788 14.8647 12.8137 14.9932 12.4952 15.0623L12.6012 15.5509C12.9918 15.4662 13.3339 15.3041 13.6205 15.0603L13.2965 14.6794ZM13.7983 13.4446C13.7983 14.0025 13.6229 14.4017 13.2965 14.6794L13.6205 15.0603C14.0802 14.6691 14.2983 14.1181 14.2983 13.4446H13.7983ZM13.611 12.6023C13.7329 12.8335 13.7983 13.1117 13.7983 13.4446H14.2983C14.2983 13.0455 14.2196 12.6844 14.0533 12.3691L13.611 12.6023ZM11.9999 4.13346C7.66195 4.13346 4.13318 7.66218 4.13318 12.0001H4.63318C4.63318 7.93833 7.93809 4.63346 11.9999 4.63346V4.13346ZM19.8666 12.0001C19.8666 7.66222 16.3378 4.13346 11.9999 4.13346V4.63346C16.0617 4.63346 19.3666 7.93837 19.3666 12.0001H19.8666ZM11.9999 19.8668C16.3378 19.8668 19.8666 16.3381 19.8666 12.0001H19.3666C19.3666 16.0619 16.0617 19.3668 11.9999 19.3668V19.8668ZM4.13318 12.0001C4.13318 16.3381 7.66195 19.8668 11.9999 19.8668V19.3668C7.93809 19.3668 4.63318 16.0619 4.63318 12.0001H4.13318ZM11.9999 18.1953C8.58403 18.1953 5.80467 15.416 5.80467 12.0001H5.30467C5.30467 15.6921 8.30789 18.6953 11.9999 18.6953V18.1953ZM18.1951 12.0001C18.1951 15.416 15.4157 18.1953 11.9999 18.1953V18.6953C15.6919 18.6953 18.6951 15.6921 18.6951 12.0001H18.1951ZM11.9999 5.80494C15.4157 5.80494 18.1951 8.5843 18.1951 12.0001H18.6951C18.6951 8.30816 15.6918 5.30494 11.9999 5.30494V5.80494ZM5.80467 12.0001C5.80467 8.5843 8.58407 5.80494 11.9999 5.80494V5.30494C8.30793 5.30494 5.30467 8.30816 5.30467 12.0001H5.80467Z" fill="#777777"/>
</svg>
