<svg width="24" height="24" viewBox="0 0 24 24" fill="none" xmlns="http://www.w3.org/2000/svg">
<path d="M20.9782 7.14973C20.9678 6.60976 20.9579 6.09965 20.9579 5.60617C20.9579 5.21955 20.6409 4.90612 20.2497 4.90612C17.2212 4.90612 14.9153 4.04571 12.9933 2.19833C12.7184 1.93399 12.2808 1.93408 12.0059 2.19833C10.0841 4.04571 7.77864 4.90612 4.75028 4.90612C4.35919 4.90612 4.04213 5.21955 4.04213 5.60617C4.04213 6.09975 4.03231 6.61004 4.02183 7.1501C3.92476 12.1751 3.79182 19.0572 12.2677 21.9615C12.3428 21.9872 12.4212 22.0001 12.4996 22.0001C12.5779 22.0001 12.6564 21.9872 12.7315 21.9615C21.208 19.0571 21.0752 12.1749 20.9782 7.14973ZM12.4997 20.5572C5.23051 17.9467 5.34041 12.2283 5.43795 7.1768C5.4438 6.87363 5.44947 6.57979 5.45343 6.29175C8.28983 6.17339 10.558 5.32372 12.4997 3.65163C14.4415 5.32372 16.7101 6.17349 19.5467 6.29175C19.5506 6.5797 19.5563 6.87335 19.5622 7.17633C19.6596 12.228 19.7694 17.9466 12.4997 20.5572Z" fill="#777777" stroke="#777777" stroke-width="0.5"/>
<path d="M14.9383 9.56834L11.5204 12.947L10.0619 11.5051C9.78531 11.2318 9.33691 11.2318 9.06045 11.5051C8.78389 11.7786 8.78389 12.2218 9.06045 12.4952L11.0197 14.432C11.1579 14.5687 11.3392 14.637 11.5204 14.637C11.7016 14.637 11.8829 14.5687 12.0211 14.432L15.9397 10.5584C16.2163 10.285 16.2163 9.84173 15.9397 9.56843C15.6633 9.29504 15.2149 9.29495 14.9383 9.56834Z" fill="#777777" stroke="#777777" stroke-width="0.5"/>
</svg>
