<svg width="22" height="22" viewBox="0 0 22 22" fill="none" xmlns="http://www.w3.org/2000/svg">
<path d="M20.2403 5.62092L11.4081 1.14577L11.4045 1.14394C11.0112 0.948144 10.5439 0.95252 10.1543 1.15566L6.36625 3.16609C6.33547 3.17913 6.3059 3.19496 6.27758 3.21316L1.73817 5.62236C1.28283 5.86078 1 6.32791 1 6.84204V15.1582C1 15.6723 1.28283 16.1394 1.73817 16.3778L10.1506 20.8426L10.1544 20.8446C10.353 20.9482 10.572 21.0001 10.791 21.0001C11.0014 21.0001 11.2118 20.9522 11.4045 20.8563L20.2403 16.3793C20.7097 16.1446 21.0012 15.673 21.0012 15.148V6.85224C21.0012 6.32725 20.7097 5.85562 20.2403 5.62092ZM10.6973 2.19373C10.7547 2.16427 10.8232 2.16368 10.8811 2.19208L19.1484 6.381L15.9308 7.98285L7.84837 3.70577L10.6973 2.19373ZM10.1968 19.5409L2.28562 15.3421L2.28183 15.3401C2.21382 15.3046 2.17151 15.2349 2.17151 15.1582V7.37067L10.1968 11.5554V19.5409ZM10.7887 10.5429L2.80761 6.38112L6.59783 4.36956L14.6403 8.62539L10.7887 10.5429ZM19.8296 15.148C19.8296 15.2264 19.786 15.2968 19.7159 15.3317L11.3683 19.5613V11.563L15.2118 9.64951V11.6557C15.2118 11.9792 15.4741 12.2415 15.7975 12.2415C16.121 12.2415 16.3833 11.9792 16.3833 11.6557V9.06624L19.8296 7.35051V15.148Z" fill="#777777" stroke="#777777" stroke-width="0.5"/>
</svg>
